<?xml version="1.0" standalone="no"?>
<!DOCTYPE svg PUBLIC "-//W3C//DTD SVG 20010904//EN"
 "http://www.w3.org/TR/2001/REC-SVG-20010904/DTD/svg10.dtd">
<svg version="1.0" xmlns="http://www.w3.org/2000/svg"
 width="225.000000pt" height="169.000000pt" viewBox="0 0 225.000000 169.000000"
 preserveAspectRatio="xMidYMid meet">

<g transform="translate(0.000000,169.000000) scale(0.100000,-0.100000)"
fill="#000000" stroke="none">
<path d="M1610 1596 c-105 -38 -117 -44 -133 -66 -8 -12 -20 -18 -30 -15 -17
7 -168 -50 -179 -68 -4 -6 -27 -10 -57 -8 -58 3 -137 -29 -183 -73 -23 -22
-31 -25 -47 -15 -15 10 -33 7 -97 -15 -44 -15 -83 -33 -89 -39 -5 -7 -26 -12
-45 -13 -20 0 -64 -14 -97 -30 -60 -29 -62 -29 -85 -12 -28 22 -111 48 -153
48 -52 0 -144 -28 -229 -71 -45 -22 -85 -45 -90 -50 -5 -5 -19 -56 -31 -115
-19 -91 -20 -107 -8 -120 8 -8 23 -14 35 -14 16 0 19 -5 14 -27 -3 -16 -12
-73 -21 -128 -9 -55 -20 -127 -25 -160 -9 -52 -8 -62 7 -73 9 -6 24 -12 32
-12 21 0 133 33 199 58 48 19 53 19 47 4 -43 -111 -49 -141 -49 -242 -1 -69 4
-117 13 -140 46 -112 133 -180 232 -180 31 0 73 7 92 15 37 15 106 76 124 109
8 15 14 16 31 7 33 -18 118 -13 161 9 47 23 116 100 133 146 7 19 15 34 18 34
3 0 14 -19 25 -42 14 -29 27 -44 43 -46 26 -4 151 35 168 52 7 6 21 38 32 71
12 33 22 56 23 50 0 -5 2 -17 3 -25 2 -8 3 -25 4 -37 1 -12 10 -27 21 -32 21
-12 67 0 328 85 141 47 173 60 173 75 0 24 4 24 41 -3 53 -40 129 -17 191 57
38 45 43 63 23 85 -13 15 -26 19 -42 15 -23 -5 -76 16 -88 36 -4 6 7 25 23 42
80 82 83 245 7 305 -17 14 -25 27 -21 37 6 16 -26 55 -45 55 -5 0 -7 4 -4 10
11 18 -15 86 -45 115 -24 23 -30 37 -30 69 0 79 -59 136 -139 136 -111 0 -194
-94 -177 -202 7 -45 -1 -47 -32 -7 l-24 29 56 89 c31 48 72 119 91 156 34 64
35 69 19 86 -21 24 -34 23 -114 -5z m54 -58 c-15 -29 -56 -100 -92 -156 l-64
-104 48 -51 c27 -28 50 -54 51 -56 2 -2 11 4 22 13 16 14 17 22 9 50 -29 94
51 196 152 196 17 0 40 -5 51 -10 22 -13 49 -61 49 -90 0 -26 -25 -77 -53
-107 -17 -19 -18 -25 -7 -38 12 -14 15 -14 28 -1 9 8 15 29 15 46 0 36 22 40
58 11 21 -17 24 -28 24 -85 0 -65 0 -66 27 -66 28 0 37 -13 18 -25 -17 -11
-11 -20 20 -32 92 -35 94 -192 4 -282 l-45 -44 23 -25 c31 -32 96 -65 119 -59
33 9 21 -22 -26 -68 -72 -69 -110 -69 -187 3 l-28 26 0 -40 0 -39 -137 -45
c-157 -51 -316 -100 -323 -100 -6 0 -2 299 4 338 7 47 -8 9 -30 -75 -29 -112
-83 -275 -94 -287 -5 -5 -41 -19 -80 -32 l-71 -22 -10 26 c-6 15 -21 58 -34
96 -24 70 -26 70 -40 -4 -18 -88 -86 -178 -160 -211 -51 -24 -82 -24 -128 0
l-36 19 -17 -27 c-104 -164 -298 -168 -377 -8 -55 110 -45 265 27 413 65 134
165 213 270 215 37 0 45 3 31 8 -32 14 -58 48 -65 89 -6 30 -8 33 -14 17 -34
-96 -134 -205 -242 -262 -64 -34 -229 -93 -261 -93 -19 0 -19 3 -6 78 26 148
59 362 57 362 -2 0 -19 -10 -39 -21 -20 -12 -37 -20 -39 -18 -3 4 41 189 46
193 25 18 107 59 161 80 68 27 167 36 219 21 38 -12 89 -55 103 -87 l12 -30 6
40 c7 38 10 41 73 66 37 15 68 25 71 23 2 -3 -1 -63 -8 -135 -12 -144 -5 -186
24 -141 16 24 37 164 37 249 l0 45 75 27 75 26 0 -51 1 -52 19 36 c26 50 98
113 153 134 43 16 92 17 127 1 10 -4 19 1 25 15 6 12 38 32 80 50 38 16 71 29
74 29 2 0 1 -19 -2 -42 l-6 -43 39 62 c39 61 40 61 127 91 48 16 89 28 91 27
2 -2 -9 -27 -24 -57z"/>
<path d="M1532 1523 c-7 -2 -17 -14 -23 -26 -9 -19 -8 -20 3 -6 7 8 22 21 33
27 20 11 11 15 -13 5z"/>
<path d="M1475 1444 c-9 -15 -12 -23 -6 -20 11 7 35 46 28 46 -3 0 -12 -12
-22 -26z"/>
<path d="M1350 1440 c-8 -5 -10 -10 -5 -10 6 0 17 5 25 10 8 5 11 10 5 10 -5
0 -17 -5 -25 -10z"/>
<path d="M1304 1416 c-3 -8 -4 -27 -1 -43 3 -24 4 -23 6 9 0 20 7 39 14 41 9
4 9 6 -1 6 -7 1 -15 -5 -18 -13z"/>
<path d="M1712 1390 c-51 -31 -80 -126 -52 -170 6 -10 3 -21 -12 -37 l-22 -23
29 -30 28 -30 -36 -15 c-20 -8 -43 -15 -52 -15 -25 0 -19 -64 8 -96 23 -26 25
-27 73 -15 27 7 85 27 129 46 44 18 99 36 122 40 53 8 62 21 22 29 -25 5 -30
9 -23 23 14 33 15 88 2 112 -18 33 -38 38 -38 10 0 -12 -12 -38 -27 -57 -26
-34 -27 -35 -35 -13 -5 14 -14 21 -23 18 -10 -4 -12 -1 -9 11 5 16 5 16 -6 0
-6 -10 -17 -15 -26 -11 -10 4 -17 -2 -21 -16 -4 -17 -8 -19 -19 -10 -8 7 -17
9 -21 6 -8 -9 -43 11 -43 25 0 6 9 3 20 -7 11 -10 20 -13 20 -7 0 6 -4 14 -10
17 -5 3 -10 14 -9 23 0 9 3 12 5 6 5 -12 39 -8 59 6 6 4 18 10 29 14 14 5 17
3 12 -10 -5 -14 -4 -15 9 -4 8 7 12 16 9 21 -3 5 0 8 7 7 17 -4 59 60 59 89 0
27 -17 64 -34 75 -22 15 -91 8 -124 -12z m132 -71 c-10 -4 -28 -8 -39 -8 -11
-1 -26 -11 -34 -23 -12 -20 -14 -20 -23 -4 -12 21 5 45 30 42 9 -2 28 0 42 4
31 9 51 -1 24 -11z m-121 -26 c-3 -8 -8 -12 -10 -9 -3 3 -16 1 -29 -4 -18 -7
-22 -6 -18 5 5 13 23 21 51 21 6 1 9 -6 6 -13z m197 -92 c0 -5 -8 -15 -17 -22
-16 -12 -17 -12 -6 2 7 9 10 19 6 22 -3 4 -1 7 5 7 7 0 12 -4 12 -9z m-250
-56 c20 -24 6 -28 -15 -5 -10 11 -13 20 -8 20 6 0 16 -7 23 -15z m64 -46 c15
-26 16 -33 5 -40 -40 -25 -70 3 -51 47 15 32 24 30 46 -7z"/>
<path d="M1700 1085 c0 -8 7 -15 16 -15 14 0 14 3 4 15 -7 8 -14 15 -16 15 -2
0 -4 -7 -4 -15z"/>
<path d="M1062 1333 l-38 -38 36 30 c19 16 39 33 45 37 5 5 6 8 2 8 -4 0 -25
-17 -45 -37z"/>
<path d="M920 1300 c-13 -8 -12 -10 3 -10 9 0 17 5 17 10 0 12 -1 12 -20 0z"/>
<path d="M860 1280 c-18 -12 -2 -12 25 0 13 6 15 9 5 9 -8 0 -22 -4 -30 -9z"/>
<path d="M1250 1260 c-17 -40 -25 -44 -54 -25 -15 10 -33 14 -46 10 -47 -15
-79 -117 -45 -145 21 -18 41 -6 64 37 l19 38 30 -63 30 -64 6 44 c10 80 18
198 13 198 -2 0 -10 -14 -17 -30z m-31 -71 c13 -11 22 -22 19 -24 -3 -3 -11 1
-18 10 -20 24 -48 18 -65 -15 -18 -35 -29 -40 -19 -7 8 27 33 57 48 57 6 -1
22 -10 35 -21z"/>
<path d="M996 1258 c-8 -13 -17 -34 -20 -48 -4 -16 0 -12 10 10 9 19 21 41 26
48 6 6 8 12 4 12 -3 0 -12 -10 -20 -22z"/>
<path d="M831 1254 c0 -11 3 -14 6 -6 3 7 2 16 -1 19 -3 4 -6 -2 -5 -13z"/>
<path d="M330 1230 c-11 -8 -7 -9 15 -4 37 8 45 14 19 14 -10 0 -26 -5 -34
-10z"/>
<path d="M710 1230 c-8 -5 -10 -10 -5 -10 6 0 17 5 25 10 8 5 11 10 5 10 -5 0
-17 -5 -25 -10z"/>
<path d="M654 1204 c-18 -14 -18 -14 6 -3 31 14 36 19 24 19 -6 0 -19 -7 -30
-16z"/>
<path d="M250 1200 c-9 -6 -10 -10 -3 -10 6 0 15 5 18 10 8 12 4 12 -15 0z"/>
<path d="M1282 1175 c0 -16 2 -22 5 -12 2 9 2 23 0 30 -3 6 -5 -1 -5 -18z"/>
<path d="M167 1160 c-29 -18 -47 -36 -46 -47 1 -17 2 -17 6 0 2 10 28 31 56
47 29 16 47 30 41 30 -5 0 -31 -13 -57 -30z"/>
<path d="M631 1144 c0 -11 3 -14 6 -6 3 7 2 16 -1 19 -3 4 -6 -2 -5 -13z"/>
<path d="M1406 1108 c-3 -18 -7 -49 -8 -67 -3 -33 -6 -36 -63 -53 -82 -24 -95
-23 -87 5 4 17 -5 12 -43 -25 -53 -53 -101 -73 -148 -64 -45 9 -74 31 -96 74
-19 35 -20 36 -21 10 -1 -93 -107 -186 -214 -189 -31 0 -31 0 -6 -10 31 -12
90 -68 90 -85 0 -10 7 -9 28 2 54 28 141 13 175 -30 5 -6 6 2 4 19 -5 29 -4
31 70 58 41 16 76 27 78 25 7 -8 45 -142 45 -161 0 -43 15 -2 35 95 l20 101
155 58 c85 32 164 60 175 64 13 4 16 8 7 12 -18 7 -42 57 -42 87 0 23 -2 25
-26 16 -37 -14 -37 -15 -82 41 l-41 50 -5 -33z m74 -83 c13 -14 31 -24 40 -23
17 4 56 -51 43 -62 -4 -4 -26 -12 -48 -18 -22 -6 -91 -30 -152 -53 l-113 -42
-6 -49 c-7 -50 -26 -61 -32 -19 -2 12 -14 27 -27 33 -24 11 -48 5 -175 -44
-14 -6 -60 -11 -103 -12 -62 -2 -80 1 -93 15 -14 16 -13 18 19 28 45 15 111
73 127 110 l12 31 29 -21 c66 -47 146 -45 206 5 15 13 48 26 73 29 25 4 70 14
100 24 53 17 55 20 58 56 4 44 10 46 42 12z"/>
<path d="M111 1064 c0 -11 3 -14 6 -6 3 7 2 16 -1 19 -3 4 -6 -2 -5 -13z"/>
<path d="M311 973 c-7 -60 -14 -118 -17 -131 -4 -22 -4 -22 23 -8 32 16 85 70
102 103 6 12 11 44 11 72 0 57 -14 71 -73 71 l-34 0 -12 -107z m97 35 c3 -41
-27 -112 -53 -122 -12 -4 -15 -1 -11 12 3 9 8 44 12 77 8 71 11 77 32 73 12
-2 18 -15 20 -40z"/>
<path d="M1130 1070 c-9 -6 -10 -10 -3 -10 6 0 15 5 18 10 8 12 4 12 -15 0z"/>
<path d="M250 1050 c-9 -6 -10 -10 -3 -10 6 0 15 5 18 10 8 12 4 12 -15 0z"/>
<path d="M811 1034 c0 -11 3 -14 6 -6 3 7 2 16 -1 19 -3 4 -6 -2 -5 -13z"/>
<path d="M1271 1034 c0 -11 3 -14 6 -6 3 7 2 16 -1 19 -3 4 -6 -2 -5 -13z"/>
<path d="M97 1021 c-4 -17 -3 -21 5 -13 5 5 8 16 6 23 -3 8 -7 3 -11 -10z"/>
<path d="M190 1025 c-14 -8 -20 -14 -15 -14 6 0 21 6 35 14 14 8 21 14 15 14
-5 0 -21 -6 -35 -14z"/>
<path d="M1880 1010 c-18 -12 -2 -12 25 0 13 6 15 9 5 9 -8 0 -22 -4 -30 -9z"/>
<path d="M785 970 c-16 -17 -16 -20 -3 -15 9 4 19 13 22 21 7 19 2 18 -19 -6z"/>
<path d="M1788 974 c-39 -21 -35 -28 5 -8 37 19 44 24 31 24 -5 -1 -21 -8 -36
-16z"/>
<path d="M161 964 c0 -11 3 -14 6 -6 3 7 2 16 -1 19 -3 4 -6 -2 -5 -13z"/>
<path d="M436 930 c-9 -22 -38 -58 -64 -81 -26 -23 -37 -37 -25 -31 34 19 85
74 100 110 20 48 10 50 -11 2z"/>
<path d="M1695 940 c-13 -6 -15 -9 -5 -9 8 0 22 4 30 9 18 12 2 12 -25 0z"/>
<path d="M151 904 c0 -11 3 -14 6 -6 3 7 2 16 -1 19 -3 4 -6 -2 -5 -13z"/>
<path d="M1525 885 c-39 -17 -21 -18 25 0 19 7 28 14 20 14 -8 0 -28 -6 -45
-14z"/>
<path d="M1897 893 c-10 -9 -9 -73 1 -73 16 0 42 36 42 58 0 21 -28 31 -43 15z"/>
<path d="M1956 855 c-4 -14 -21 -34 -39 -45 -17 -11 -26 -20 -19 -20 19 0 72
55 72 74 0 24 -7 19 -14 -9z"/>
<path d="M142 850 c0 -14 2 -19 5 -12 2 6 2 18 0 25 -3 6 -5 1 -5 -13z"/>
<path d="M1460 860 c0 -5 7 -7 15 -4 8 4 15 8 15 10 0 2 -7 4 -15 4 -8 0 -15
-4 -15 -10z"/>
<path d="M1375 830 c-16 -7 -17 -9 -3 -9 9 -1 20 4 23 9 7 11 7 11 -20 0z"/>
<path d="M1291 801 c-7 -5 -12 -13 -10 -18 2 -5 12 -1 22 9 18 19 12 24 -12 9z"/>
<path d="M1633 783 c-45 -15 -73 -30 -73 -39 0 -16 21 -13 94 13 21 7 40 13
42 13 2 0 4 -29 4 -64 l0 -65 -70 -22 c-59 -19 -70 -26 -70 -45 l0 -23 73 25
c39 13 77 28 83 32 6 4 14 51 17 105 6 113 12 109 -100 70z"/>
<path d="M598 773 c6 -2 18 -2 25 0 6 3 1 5 -13 5 -14 0 -19 -2 -12 -5z"/>
<path d="M523 741 c-38 -27 -80 -76 -116 -133 -33 -53 -17 -42 19 12 47 72 59
85 112 120 25 17 41 30 35 30 -5 0 -28 -13 -50 -29z"/>
<path d="M1083 730 c-24 -11 -43 -21 -43 -24 0 -3 19 3 43 13 23 10 49 20 57
24 13 5 13 5 0 6 -8 0 -34 -9 -57 -19z"/>
<path d="M121 724 c0 -11 3 -14 6 -6 3 7 2 16 -1 19 -3 4 -6 -2 -5 -13z"/>
<path d="M1271 724 c0 -11 3 -14 6 -6 3 7 2 16 -1 19 -3 4 -6 -2 -5 -13z"/>
<path d="M860 690 c-18 -12 -2 -12 25 0 13 6 15 9 5 9 -8 0 -22 -4 -30 -9z"/>
<path d="M1752 650 c0 -19 2 -27 5 -17 2 9 2 25 0 35 -3 9 -5 1 -5 -18z"/>
<path d="M785 643 c-33 -33 -75 -98 -75 -115 0 -7 9 5 21 27 12 22 37 57 57
78 41 42 39 51 -3 10z"/>
<path d="M1252 640 c0 -14 2 -19 5 -12 2 6 2 18 0 25 -3 6 -5 1 -5 -13z"/>
<path d="M101 604 c0 -11 3 -14 6 -6 3 7 2 16 -1 19 -3 4 -6 -2 -5 -13z"/>
<path d="M588 573 c-79 -82 -116 -234 -68 -278 19 -17 22 -18 55 -2 19 9 42
28 51 42 19 29 34 32 34 8 1 -10 8 -29 16 -43 10 -16 13 -18 8 -5 -16 43 -16
174 -1 220 9 25 13 45 9 45 -4 0 -12 10 -17 23 -16 35 -46 32 -87 -10z m75
-17 c3 -8 2 -29 -3 -46 -5 -18 -10 -52 -11 -76 -2 -34 -10 -51 -40 -84 -50
-54 -69 -53 -69 4 0 51 25 113 69 174 33 45 45 51 54 28z"/>
<path d="M846 511 c-25 -28 -33 -109 -13 -136 37 -48 109 43 91 115 -11 43
-49 53 -78 21z m53 -77 c-18 -47 -39 -56 -39 -17 0 36 28 79 43 64 7 -7 6 -22
-4 -47z"/>
<path d="M345 450 c-4 -17 -5 -34 -2 -36 2 -3 7 10 11 27 8 42 0 50 -9 9z"/>
<path d="M691 424 c0 -11 3 -14 6 -6 3 7 2 16 -1 19 -3 4 -6 -2 -5 -13z"/>
<path d="M909 363 c-13 -16 -12 -17 4 -4 16 13 21 21 13 21 -2 0 -10 -8 -17
-17z"/>
<path d="M615 294 c-18 -16 -22 -22 -9 -15 18 9 53 42 43 41 -2 -1 -17 -12
-34 -26z"/>
<path d="M1738 1529 c-15 -33 -24 -59 -20 -59 8 0 57 109 51 114 -2 2 -16 -23
-31 -55z"/>
</g>
</svg>
